<svg width="148" height="32" viewBox="0 0 148 32" fill="none" xmlns="http://www.w3.org/2000/svg">
<path d="M66.0181 0.00856443L54.6426 0C54.6426 0 50.181 0.113035 50.181 4.65301C50.181 9.32306 54.6426 9.21762 54.6426 9.21762L61.4026 9.20811C61.4026 9.20811 62.2947 9.20811 62.2947 10.1721C62.2947 11.007 61.3998 11.007 61.3998 11.007H50.4926V14.9249L61.7943 14.9258C61.7943 14.9258 66.6051 15.1148 66.6051 10.0117C66.6051 5.61988 61.7943 5.49072 61.7943 5.49072H55.3881C55.3881 5.49072 54.3937 5.49072 54.3937 4.65393C54.3937 3.84472 55.3881 3.84473 55.3881 3.84473H66.0181V0.00856443Z" fill="#FF3E17"/>
<path d="M0.787842 7.4585L8.20128 21.765H14.1743L21.4901 7.45942H15.6968L11.5652 16.1594C11.3514 16.6086 11.3514 17.1121 11.3514 17.1121C11.3514 17.1121 11.3514 16.6087 11.132 16.1471L7.00137 7.45942L0.787842 7.4585Z" fill="#FF3E17"/>
<path d="M28.8686 7.45947V21.746H23.7085V7.45947H28.8686Z" fill="#FF3E17"/>
<path d="M88.2425 7.45947L81.2815 7.46047L79.1388 13.3738C78.9627 13.8629 78.9111 14.7975 78.9111 14.7975C78.9111 14.7975 78.8365 13.8487 78.666 13.3738L76.5408 7.46047L69.6056 7.45947L69.5991 21.748L74.0496 21.746V13.2465C74.0496 13.2465 74.0496 13.7508 74.2395 14.2058L77.3895 21.748H80.4327L83.5828 14.031C83.7699 13.5733 83.7699 13.0689 83.7699 13.0689V21.746H88.2425V7.45947Z" fill="#FF3E17"/>
<path d="M121.647 21.7489L126.745 21.746V7.45947H121.875V15.3037C121.875 15.3037 121.875 14.7994 121.555 14.4157L115.768 7.45947H110.638V21.746H115.768V13.9028C115.768 13.9028 115.768 14.4062 116.075 14.789L121.647 21.7489Z" fill="#FF3E17"/>
<path fill-rule="evenodd" clip-rule="evenodd" d="M108.972 21.748L101.962 7.46143H96.5123L89.5025 21.748H94.952L96.2478 19.1057L102.225 19.1067L103.522 21.748L108.499 21.749L108.498 21.748H108.972ZM97.5593 15.489C97.5593 15.489 98.8053 12.9417 99.0209 12.5001C99.2366 12.0584 99.2366 11.555 99.2366 11.555C99.2366 11.555 99.2366 12.0584 99.4532 12.5019L100.921 15.5032L97.5593 15.489Z" fill="#FF3E17"/>
<path d="M38.422 17.9356L38.4229 15.9534H46.1626V12.7384H38.4229V10.968H47.8436V7.46047L33.5319 7.45947V21.746H48.2197V17.9365L38.422 17.9356Z" fill="#FF3E17"/>
<path d="M142.116 21.7509L147.212 21.749V7.46143H142.342V15.3057C142.342 15.3057 142.342 14.8013 142.023 14.4176L136.237 7.46143H131.106V21.749H136.237V13.9047C136.237 13.9047 136.237 14.4091 136.543 14.7918L142.116 21.7509Z" fill="#FF3E17"/>
<path d="M66.0216 17.0818L54.6461 17.0742C54.6461 17.0742 50.1836 17.1863 50.1836 21.7272C50.1836 26.3963 54.6461 26.2909 54.6461 26.2909L61.4052 26.2823C61.4052 26.2823 62.2973 26.2823 62.2973 27.2463C62.2973 28.0812 61.4034 28.0812 61.4034 28.0812H50.4961V31.9991H61.7969C61.7969 31.9991 66.6086 32.189 66.6086 27.0858C66.6086 22.6931 61.7969 22.5648 61.7969 22.5648L55.3917 22.5639C55.3917 22.5639 54.3973 22.5639 54.3973 21.7272C54.3973 20.918 55.3917 20.918 55.3917 20.918L66.0216 20.9189V17.0818Z" fill="#FF3E17"/>
</svg>
